<?xml version="1.0" encoding="UTF-8"?>
<svg version="1.1" xmlns="http://www.w3.org/2000/svg" width="1920" height="1080">
<path d="M0 0 C0.86109375 0.144375 1.7221875 0.28875 2.609375 0.4375 C20.05424149 3.47138982 40.51081037 14.54756542 51 29 C51.69864707 30.31685781 52.37568566 31.64631842 53 33 C53.66 33 54.32 33 55 33 C55.66 34.98 56.32 36.96 57 39 C57.66 39 58.32 39 59 39 C60.4606285 41.64738916 61 42.89448334 61 46 C61.66 46 62.32 46 63 46 C73.63529655 72.81944348 77.59214554 100.63603964 65.97265625 127.86450195 C61.45517335 137.80833118 55.46295 147.01637907 48 155 C47.2575 155.804375 46.515 156.60875 45.75 157.4375 C44 159 44 159 42 159 C41.67 159.99 41.34 160.98 41 162 C30.52980269 170.61662171 14.87916931 181 1 181 C0.95536621 181.77311523 0.91073242 182.54623047 0.86474609 183.34277344 C0.30700376 191.76556403 -0.87377607 199.94817081 -2.375 208.25 C-2.60195557 209.53285889 -2.82891113 210.81571777 -3.06274414 212.13745117 C-3.50918104 214.65832834 -3.95805018 217.17877631 -4.40966797 219.69873047 C-4.87653819 222.30957378 -5.33601269 224.92122723 -5.78515625 227.53515625 C-6.90052353 233.99360034 -8.07892138 240.43670235 -9.3046875 246.875 C-9.80775095 249.52074729 -10.31055416 252.16654075 -10.8125 254.8125 C-10.94047974 255.48705231 -11.06845947 256.16160461 -11.20031738 256.8565979 C-13.62571741 269.67941262 -15.81026797 282.53699274 -17.9074707 295.41723633 C-19.35385252 304.28066057 -20.92396814 313.11103627 -22.60696411 321.93249512 C-26.41223139 341.94951877 -30.06469725 361.99024759 -33.36010742 382.09765625 C-34.59952661 389.65181468 -35.92756748 397.17853226 -37.375 404.6953125 C-38.33710577 409.78244677 -39.17716315 414.88873107 -40 420 C-39.40832031 420.43570312 -38.81664062 420.87140625 -38.20703125 421.3203125 C-33.45998753 424.89801919 -29.65483106 428.32993808 -26 433 C-24.824375 434.11375 -24.824375 434.11375 -23.625 435.25 C-14.37413145 444.9413861 -7.43208837 458.04872313 -4 471 C-3.72285156 471.9178125 -3.44570313 472.835625 -3.16015625 473.78125 C1.35441269 490.92412929 0.62362804 510.2183798 -5 527 C-5.21962402 527.65677734 -5.43924805 528.31355469 -5.66552734 528.99023438 C-8.67963664 537.70192748 -12.67765824 545.47112931 -18 553 C-18.49371094 553.72832031 -18.98742187 554.45664062 -19.49609375 555.20703125 C-23.44566535 560.80493355 -28.35361529 566.78453843 -35 569 C-35 569.66 -35 570.32 -35 571 C-40.5455504 576.78088698 -47.30269368 577.57768021 -54.88085938 577.77636719 C-58.86945354 577.8380509 -62.85489191 577.82352213 -66.84375 577.796875 C-68.98026933 577.80092278 -71.11678596 577.8067509 -73.2532959 577.81427002 C-77.71844949 577.82308743 -82.18288007 577.81035053 -86.64794922 577.78222656 C-92.35092477 577.74804228 -98.05220584 577.76774061 -103.75511932 577.80366135 C-108.16319379 577.82541717 -112.57087124 577.81840818 -116.97895813 577.80289459 C-119.08075668 577.79891259 -121.18259211 577.80373137 -123.28434753 577.81777191 C-143.0257056 577.92073294 -143.0257056 577.92073294 -150.58044434 572.47979736 C-152 571 -152 571 -152 569 C-152.556875 568.773125 -153.11375 568.54625 -153.6875 568.3125 C-156.63899202 566.63732885 -158.72076296 564.46615859 -161 562 C-161.61101562 561.35933594 -162.22203125 560.71867188 -162.8515625 560.05859375 C-182.22937617 539.14701491 -187.13124711 513.76914578 -186.19042969 486.08740234 C-185.82835899 480.21721513 -184.74643278 474.62392937 -183 469 C-183.66 468.54625 -184.32 468.0925 -185 467.625 C-185.66 467.08875 -186.32 466.5525 -187 466 C-187 465.34 -187 464.68 -187 464 C-187.56203125 463.75765625 -188.1240625 463.5153125 -188.703125 463.265625 C-191.45389663 461.7498937 -193.45788803 459.89611758 -195.75 457.75 C-198.83992161 454.91036659 -201.92070369 452.22144172 -205.3125 449.75 C-208.52432356 447.40658202 -211.21560116 444.85069405 -214 442 C-219.5768821 436.41480773 -219.5768821 436.41480773 -226 432 C-226 431.34 -226 430.68 -226 430 C-227.0828125 429.6596875 -227.0828125 429.6596875 -228.1875 429.3125 C-231.58897247 427.72514618 -233.41025643 425.7130647 -236 423 C-237.86174763 421.41809752 -239.74438699 419.86754228 -241.64453125 418.33203125 C-242.09183594 417.89246094 -242.53914062 417.45289063 -243 417 C-243 416.34 -243 415.68 -243 415 C-243.56203125 414.75765625 -244.1240625 414.5153125 -244.703125 414.265625 C-247.45389663 412.7498937 -249.45788803 410.89611758 -251.75 408.75 C-254.83992161 405.91036659 -257.92070369 403.22144172 -261.3125 400.75 C-264.52432356 398.40658202 -267.21560116 395.85069405 -270 393 C-275.5768821 387.41480773 -275.5768821 387.41480773 -282 383 C-282 382.34 -282 381.68 -282 381 C-282.54398438 380.77441406 -283.08796875 380.54882812 -283.6484375 380.31640625 C-286.73640119 378.58776213 -289.04454974 376.35449856 -291.625 373.9375 C-295.04209753 370.58466353 -295.04209753 370.58466353 -299 368 C-299 367.34 -299 366.68 -299 366 C-299.55558594 365.7628125 -300.11117187 365.525625 -300.68359375 365.28125 C-303.54371121 363.6992626 -305.66948669 361.72337285 -308.0625 359.5 C-310.65920335 357.09463269 -313.05106306 354.96595796 -316 353 C-316 352.34 -316 351.68 -316 351 C-316.56847656 350.73832031 -317.13695312 350.47664063 -317.72265625 350.20703125 C-323.91398647 346.92552004 -329.14973949 341.98883939 -334 337 C-334.763125 336.443125 -335.52625 335.88625 -336.3125 335.3125 C-336.869375 334.879375 -337.42625 334.44625 -338 334 C-338 333.34 -338 332.68 -338 332 C-338.99 331.67 -339.98 331.34 -341 331 C-341 330.34 -341 329.68 -341 329 C-341.5775 328.731875 -342.155 328.46375 -342.75 328.1875 C-345 327 -345 327 -346.6875 325.1875 C-349.15262962 323.58787555 -349.15262962 323.58787555 -352.6875 325.0625 C-353.48800781 325.35898437 -354.28851563 325.65546875 -355.11328125 325.9609375 C-381.61626351 335.50057658 -408.74007967 332.23376381 -434 321 C-435.33976329 320.34635135 -436.67661368 319.68620031 -438 319 C-438 318.34 -438 317.68 -438 317 C-438.72445312 316.73445313 -439.44890625 316.46890625 -440.1953125 316.1953125 C-448.34811404 312.7207202 -454.6210454 306.91987528 -460 300 C-460.55816406 299.30261719 -461.11632812 298.60523438 -461.69140625 297.88671875 C-463 296 -463 296 -463 294 C-463.66 294 -464.32 294 -465 294 C-471.0866357 285.8583404 -474.30005876 276.42977873 -477.38916016 266.86816406 C-477.93077223 265.21172299 -478.51509511 263.56938248 -479.10546875 261.9296875 C-483.66838615 246.98563487 -482.6910792 226.83156996 -478 212 C-477.79600586 211.33210449 -477.59201172 210.66420898 -477.38183594 209.97607422 C-474.43623437 200.45968022 -471.02399045 191.05786352 -465 183 C-464.34 183 -463.68 183 -463 183 C-462.34 181.35 -461.68 179.7 -461 178 C-460.34 178 -459.68 178 -459 178 C-458.73703125 177.41605469 -458.4740625 176.83210937 -458.203125 176.23046875 C-450.83074951 162.56285055 -431.58886051 154.41270867 -417.6875 149.8125 C-393.85191993 142.86982514 -366.9107588 144.30891656 -344.94873047 156.19042969 C-337.36636167 160.39496151 -330.0863393 164.74916504 -324 171 C-321.39342014 170.11076818 -318.78992164 169.21376202 -316.1875 168.3125 C-315.46884766 168.06822266 -314.75019531 167.82394531 -314.00976562 167.57226562 C-309.81274457 166.11162834 -305.77058612 164.47559744 -301.73828125 162.60546875 C-294.52978162 159.26807235 -287.10435397 156.5415414 -279.671875 153.75 C-274.62765231 151.83749851 -269.64833527 149.88521613 -264.7578125 147.60546875 C-258.03388133 144.48893759 -251.12802161 141.86760586 -244.21313477 139.21099854 C-240.20964502 137.67253731 -236.21045869 136.12296134 -232.2109375 134.57421875 C-231.41770081 134.26730103 -230.62446411 133.9603833 -229.80718994 133.64416504 C-220.09597573 129.88250098 -210.43242417 126.00393748 -200.77246094 122.11279297 C-197.98938155 120.99573803 -195.20246931 119.88883927 -192.4140625 118.78515625 C-182.33606691 114.82209629 -182.33606691 114.82209629 -172.4375 110.4375 C-166.82110908 107.80232132 -161.00645706 105.73936067 -155.16186523 103.67358398 C-149.93090129 101.80101459 -144.91545707 99.62491523 -139.87353516 97.29345703 C-134.96414372 95.08360522 -129.95397606 93.13889295 -124.9375 91.1875 C-123.90689453 90.78080078 -122.87628906 90.37410156 -121.81445312 89.95507812 C-120.83283203 89.57158203 -119.85121094 89.18808594 -118.83984375 88.79296875 C-117.95675537 88.4477417 -117.07366699 88.10251465 -116.16381836 87.74682617 C-114 87 -114 87 -112 87 C-112.02320313 86.38253906 -112.04640625 85.76507813 -112.0703125 85.12890625 C-112.19916807 79.08189827 -111.61958354 73.81577727 -110 68 C-109.731875 66.9996875 -109.46375 65.999375 -109.1875 64.96875 C-106.95237757 57.1458215 -103.87849553 50.14019527 -100 43 C-99.61457031 42.27425781 -99.22914063 41.54851562 -98.83203125 40.80078125 C-97.18549947 37.79160248 -95.54612135 35.3036336 -93 33 C-92.67 32.34 -92.34 31.68 -92 31 C-91.34 31 -90.68 31 -90 31 C-89.34 29.68 -88.68 28.36 -88 27 C-87.34 27 -86.68 27 -86 27 C-85.67 26.01 -85.34 25.02 -85 24 C-63.02720128 1.98299042 -29.93465915 -6.15798702 0 0 Z M-91.30859375 159.57421875 C-92.13174072 159.9096167 -92.9548877 160.24501465 -93.80297852 160.59057617 C-95.10706665 161.13355347 -95.10706665 161.13355347 -96.4375 161.6875 C-98.24708745 162.42783756 -100.05698355 163.16742114 -101.8671875 163.90625 C-102.74729492 164.2671875 -103.62740234 164.628125 -104.53417969 165 C-107.69233878 166.28077422 -110.87247541 167.48835823 -114.0625 168.6875 C-117.88528429 170.14287473 -121.60722335 171.7054476 -125.3125 173.4375 C-129.80158998 175.52803971 -134.35534301 177.29545914 -139 179 C-143.53940408 180.66661054 -147.99339353 182.38151543 -152.375 184.4375 C-159.35639716 187.70806444 -166.57400121 190.37128827 -173.76611328 193.13574219 C-177.08351616 194.41919642 -180.38664375 195.73717277 -183.6875 197.0625 C-185.50507813 197.79146484 -185.50507813 197.79146484 -187.359375 198.53515625 C-189.80799671 199.52038494 -192.2559023 200.50739513 -194.703125 201.49609375 C-195.94775749 201.99779092 -197.19254953 202.49909243 -198.4375 203 C-199.35776978 203.3702832 -199.35776978 203.3702832 -200.29663086 203.74804688 C-204.92034456 205.59632591 -209.57868286 207.33872596 -214.25 209.0625 C-219.64989045 211.05812566 -224.88408257 213.27083398 -230.09375 215.71875 C-233.67760977 217.29873119 -237.32408344 218.65140853 -241 220 C-245.47947167 221.64408072 -249.87132 223.33013253 -254.1875 225.375 C-260.39001598 228.28830296 -266.79989409 230.63153221 -273.20922852 233.04272461 C-279.13473226 235.27563889 -284.99736541 237.60032289 -290.8203125 240.08984375 C-292.51844121 240.798919 -294.25420908 241.41806969 -296 242 C-296.08564209 242.54938232 -296.17128418 243.09876465 -296.25952148 243.66479492 C-296.65108339 246.17253608 -297.0442772 248.68001877 -297.4375 251.1875 C-297.63956055 252.48397461 -297.63956055 252.48397461 -297.84570312 253.80664062 C-298.04389648 255.06831055 -298.04389648 255.06831055 -298.24609375 256.35546875 C-298.37056885 257.16910889 -298.49504395 257.98274902 -298.62329102 258.82104492 C-299 261 -299 261 -299.8046875 263.875 C-300.23616039 266.10961497 -300.23616039 266.10961497 -298.63671875 268.01953125 C-297.99347656 268.61121094 -297.35023438 269.20289063 -296.6875 269.8125 C-295.73423828 270.71935547 -295.73423828 270.71935547 -294.76171875 271.64453125 C-293.10628452 273.20326523 -293.10628452 273.20326523 -291 273 C-291 273.66 -291 274.32 -291 275 C-289.37898212 276.41261529 -289.37898212 276.41261529 -287.3125 277.8125 C-283.8722102 280.3101624 -280.97648129 282.95265011 -278 286 C-271.37880138 292.22027019 -271.37880138 292.22027019 -264.1875 297.75 C-261.06756537 299.9523068 -258.67958333 302.28898461 -256 305 C-254.07165625 306.80333388 -252.13795892 308.59607572 -250.1875 310.375 C-249.39702271 311.09671387 -249.39702271 311.09671387 -248.59057617 311.83300781 C-242.96935794 316.95366545 -237.35133767 321.99654876 -231.3125 326.625 C-227.93879748 329.21839037 -224.97635021 331.95105588 -222 335 C-218.70281684 338.04098312 -215.35919775 341.02778183 -212 344 C-211.36964844 344.55816406 -210.73929687 345.11632812 -210.08984375 345.69140625 C-207.42710941 348.2354967 -207.42710941 348.2354967 -204 349 C-203.77828125 349.56847656 -203.5565625 350.13695312 -203.328125 350.72265625 C-201.59517144 353.69416191 -199.44708478 355.31151924 -196.75 357.4375 C-195.76257813 358.22511719 -194.77515625 359.01273438 -193.7578125 359.82421875 C-192.84773438 360.54222656 -191.93765625 361.26023437 -191 362 C-187.10923147 365.14006008 -183.53642723 368.46357277 -180 372 C-178.61528407 373.28293797 -177.21875322 374.55320657 -175.8125 375.8125 C-175.13832031 376.41707031 -174.46414063 377.02164063 -173.76953125 377.64453125 C-172.10688352 379.20270013 -172.10688352 379.20270013 -170 379 C-169.67 379.99 -169.34 380.98 -169 382 C-165.94491974 385.03277199 -165.94491974 385.03277199 -162 386 C-161.67 386.99 -161.34 387.98 -161 389 C-157.52064528 392.64013067 -157.52064528 392.64013067 -153 394 C-153 394.66 -153 395.32 -153 396 C-151.40665761 397.43549726 -149.74748918 398.79827327 -148.0625 400.125 C-142.88866837 404.26004419 -137.9070425 408.55337136 -133 413 C-132.03578125 412.65066406 -131.0715625 412.30132813 -130.078125 411.94140625 C-128.80211997 411.48166914 -127.52607626 411.02203937 -126.25 410.5625 C-125.29867187 410.21735352 -125.29867187 410.21735352 -124.328125 409.86523438 C-121.24082693 408.75573663 -118.18972326 407.76076733 -115 407 C-112.46633722 396.79908731 -110.66905362 386.55714758 -109 376.1875 C-107.14788588 364.76010056 -105.18174409 353.3692145 -103 342 C-99.82677601 325.33339729 -96.72427225 308.66272581 -93.875 291.9375 C-93.68594589 290.82776825 -93.68594589 290.82776825 -93.49307251 289.69561768 C-92.88187403 286.10430311 -92.27236464 282.51270466 -91.6640625 278.92089844 C-89.41977852 265.66972168 -87.13191521 252.44896502 -84.43139648 239.2824707 C-83.12505187 232.83211166 -82.06539681 226.36067023 -81.07177734 219.85571289 C-79.75733012 211.28868307 -78.10994558 202.79083966 -76.47851562 194.27929688 C-75.91688205 191.33318391 -75.36416708 188.38549381 -74.8125 185.4375 C-74.63340088 184.50897217 -74.45430176 183.58044434 -74.26977539 182.6237793 C-72.89228947 175.35707767 -72.89228947 175.35707767 -73 168 C-74.6042361 165.80233086 -74.6042361 165.80233086 -76.875 164.25 C-79.56845774 162.18405034 -81.08058278 160.87912583 -83 158 C-86.6403726 158 -88.09862426 158.24803252 -91.30859375 159.57421875 Z " fill="#FFFFFF" transform="translate(481,259)"/>
<path d="M0 0 C170.73417722 0 170.73417722 0 198 27 C212.41245321 43.56634381 216.15833351 62.79075168 215.21142578 84.12841797 C213.96435555 101.06610862 206.08297581 115.17556203 194.01953125 126.9296875 C186.90118724 132.90524127 178.24548812 136.82518914 170 141 C170.58442871 141.18320801 171.16885742 141.36641602 171.77099609 141.55517578 C181.0029098 144.52630102 189.40773783 148.92619027 197 155 C197 155.66 197 156.32 197 157 C197.87591797 157.36931641 197.87591797 157.36931641 198.76953125 157.74609375 C209.30500219 163.66883661 216.65163127 180.73432528 220.04760742 191.93164062 C225.41187915 212.17801472 221.88284322 233.69208176 211.47265625 251.7109375 C199.27789503 270.66618969 181.10158683 280.66952395 160 287 C107.38307743 295.76948709 53.34270751 290 0 290 C0 194.3 0 98.6 0 0 Z M60 48 C60 71.43 60 94.86 60 119 C74.72625 119.0928125 74.72625 119.0928125 89.75 119.1875 C92.82538086 119.21481201 95.90076172 119.24212402 99.06933594 119.27026367 C101.54101165 119.27903577 104.01269173 119.28667799 106.484375 119.29296875 C107.74008301 119.30831665 108.99579102 119.32366455 110.28955078 119.33947754 C122.41853858 119.34303234 135.57092786 117.51647979 145.03515625 109.21484375 C152.47034402 101.27450522 155.11057132 92.79452502 155 82 C154.22404489 71.73245117 150.74203914 64.35574602 143.375 57.1875 C135.45848272 50.4069852 126.02776589 47.8655239 115.7409668 47.88647461 C114.48280151 47.88659546 113.22463623 47.88671631 111.92834473 47.88684082 C110.61523315 47.89195679 109.30212158 47.89707275 107.94921875 47.90234375 C106.12855896 47.90385437 106.12855896 47.90385437 104.27111816 47.90539551 C99.74323581 47.91062189 95.21536694 47.92458316 90.6875 47.9375 C80.560625 47.958125 70.43375 47.97875 60 48 Z M60 165 C60 190.41 60 215.82 60 242 C70.065 242.061875 80.13 242.12375 90.5 242.1875 C93.64337891 242.21481201 96.78675781 242.24212402 100.02539062 242.27026367 C127.01986854 242.99076524 127.01986854 242.99076524 151 232 C158.63472478 224.40617553 161.8091979 215.55007688 162.25 204.875 C162.06635985 193.96677485 158.57077987 185.04722815 151.21875 177.06640625 C139.15574135 165.57194104 123.99180666 164.68034139 108.14453125 164.8046875 C106.30344788 164.80770874 106.30344788 164.80770874 104.4251709 164.81079102 C99.88757532 164.82116972 95.35003348 164.84909154 90.8125 164.875 C80.644375 164.91625 70.47625 164.9575 60 165 Z " fill="#FFFFFF" transform="translate(1696,401)"/>
<path d="M0 0 C19.8 0 39.6 0 60 0 C60.0093457 5.69693115 60.01869141 11.3938623 60.02832031 17.26342773 C60.0621379 36.11872254 60.11751438 54.97390896 60.18390274 73.82911587 C60.22361755 85.25725459 60.25604834 96.68532521 60.27099609 108.11352539 C60.28405189 118.08082899 60.31111628 128.04798225 60.35461307 138.01520115 C60.37713981 143.28690083 60.39291598 148.5584157 60.39188385 153.83016777 C60.39113201 158.80511398 60.40929071 163.77965301 60.44116783 168.75449371 C60.44959742 170.56791129 60.45146475 172.38137491 60.44580269 174.19480324 C60.398908 191.54193455 62.17398789 209.76766274 74.1015625 223.40234375 C86.93623685 235.57941111 103.55211993 238.60248768 120.64453125 238.40209961 C136.15934744 237.95069871 150.24202534 233.77033478 161.67578125 222.796875 C164.41238593 219.50375072 166.46956173 216.16663457 168.4375 212.375 C168.75557617 211.77316895 169.07365234 211.17133789 169.40136719 210.55126953 C175.46125775 197.84115461 175.44601555 183.70288252 175.43237305 169.94750977 C175.44141104 168.08324544 175.45174318 166.21898701 175.46325684 164.35473633 C175.49061388 159.34130554 175.50008212 154.32798815 175.50611091 149.31449246 C175.51555054 144.05743068 175.54175806 138.80045178 175.56611633 133.54344177 C175.60963221 123.60977909 175.63827049 113.67613263 175.66143972 103.74240392 C175.68857172 92.42420635 175.73247803 81.10609278 175.77772844 69.7879554 C175.87036098 46.5253371 175.93992562 23.26272674 176 0 C195.8 0 215.6 0 236 0 C236.04526895 23.92324579 236.08205999 47.84645653 236.10362434 71.76973438 C236.11390629 82.87946425 236.12790721 93.98916548 236.15087891 105.09887695 C236.17090766 114.78998116 236.18373879 124.48106461 236.18817699 134.17218894 C236.19076841 139.29638122 236.19679401 144.42051415 236.21146011 149.54468727 C236.22519447 154.38324179 236.22919117 159.2217134 236.22621536 164.06028557 C236.22675853 165.82128477 236.2306404 167.58228721 236.23841095 169.34326935 C236.30162597 184.42936889 235.95463913 200.06276834 231.875 214.6875 C231.66472168 215.4609375 231.45444336 216.234375 231.23779297 217.03125 C228.86632485 225.22328968 225.21131937 232.61405778 221 240 C220.44441406 240.99515625 219.88882812 241.9903125 219.31640625 243.015625 C214.82290093 250.55867949 209.13255169 256.77779112 203 263 C202.36578125 263.64710938 201.7315625 264.29421875 201.078125 264.9609375 C178.8725947 285.88915853 147.20957872 293.22491535 117.625 293.25 C116.91102051 293.25067474 116.19704102 293.25134949 115.46142578 293.25204468 C104.41096264 293.23546402 93.74357896 292.77384595 83 290 C82.33194336 289.82839355 81.66388672 289.65678711 80.97558594 289.47998047 C52.62827598 281.90942203 28.77799345 266.3643925 13.69042969 240.68530273 C1.02999466 217.83303259 -0.16948057 191.92734448 -0.11352539 166.42822266 C-0.11324268 164.60352073 -0.11340289 162.77881868 -0.1139679 160.95411682 C-0.11425259 156.04393527 -0.10840929 151.13377859 -0.10139394 146.22360277 C-0.09510539 141.07602092 -0.09455227 135.92843837 -0.09336853 130.78085327 C-0.09027134 121.05254785 -0.08207985 111.32425379 -0.07201904 101.59595335 C-0.06080762 90.51240701 -0.05533482 79.4288601 -0.05032361 68.3453095 C-0.03989576 45.56353194 -0.0215705 22.78176992 0 0 Z " fill="#FFFFFF" transform="translate(1406,401)"/>
<path d="M0 0 C0.61987793 0.3599707 1.23975586 0.71994141 1.87841797 1.09082031 C18.91499373 11.16578354 32.35603262 24.68104191 42 42 C42.61875 43.09054687 43.2375 44.18109375 43.875 45.3046875 C53.3316921 62.95446197 56.39753577 82.32117186 56.3125 102.1875 C56.31067719 102.86498291 56.30885437 103.54246582 56.30697632 104.24047852 C56.15874929 137.05321104 45.18282722 165.83448692 22.125 189.375 C-1.06584011 212.01430685 -31.82026058 221.49317652 -63.75 221.3125 C-64.45476471 221.31001251 -65.15952942 221.30752502 -65.88565063 221.30496216 C-76.50850502 221.24703546 -86.71496869 220.91312919 -97 218 C-97.825 217.76893555 -98.65 217.53787109 -99.5 217.29980469 C-128.35279273 208.96478644 -152.48874753 191.53321238 -167.30078125 165.00390625 C-176.79100298 147.12570795 -181.21417737 128.1612619 -182 108 C-182.061875 106.70642578 -182.061875 106.70642578 -182.125 105.38671875 C-182.87518401 75.23869874 -174.17023639 47.35832857 -155 24 C-154.46890625 23.33355469 -153.9378125 22.66710937 -153.390625 21.98046875 C-135.96632008 0.94684352 -107.77853372 -11.66890614 -81 -15 C-79.72576172 -15.16435547 -79.72576172 -15.16435547 -78.42578125 -15.33203125 C-51.17088709 -18.31614375 -23.81839986 -13.8349028 0 0 Z M-105.3125 54.4375 C-119.55010184 71.4768789 -122.30643104 92.15157598 -120.72265625 113.7890625 C-118.79168399 131.55400725 -111.97046322 147.46675155 -98 159 C-90.46830892 164.36189642 -83.08591025 167.42146293 -74 169 C-73.19175781 169.15339844 -72.38351562 169.30679688 -71.55078125 169.46484375 C-55.42467981 171.83711322 -39.86589117 166.43767565 -27 157 C-14.2946148 147.02087154 -7.29077136 130.58646802 -5 115 C-3.45348085 93.19207621 -5.51833996 73.96631457 -19.25 56.125 C-30.37214805 43.32794302 -44.43423124 37.26776135 -61.109375 35.81640625 C-77.87403855 35.22756476 -94.01175537 42.16510256 -105.3125 54.4375 Z " fill="#FFFFFF" transform="translate(1309,473)"/>
<path d="M0 0 C0.61987793 0.3599707 1.23975586 0.71994141 1.87841797 1.09082031 C18.91499373 11.16578354 32.35603262 24.68104191 42 42 C42.61875 43.09054687 43.2375 44.18109375 43.875 45.3046875 C53.3316921 62.95446197 56.39753577 82.32117186 56.3125 102.1875 C56.31067719 102.86498291 56.30885437 103.54246582 56.30697632 104.24047852 C56.15874929 137.05321104 45.18282722 165.83448692 22.125 189.375 C-1.06584011 212.01430685 -31.82026058 221.49317652 -63.75 221.3125 C-64.45476471 221.31001251 -65.15952942 221.30752502 -65.88565063 221.30496216 C-76.50850502 221.24703546 -86.71496869 220.91312919 -97 218 C-97.825 217.76893555 -98.65 217.53787109 -99.5 217.29980469 C-128.35279273 208.96478644 -152.48874753 191.53321238 -167.30078125 165.00390625 C-176.79100298 147.12570795 -181.21417737 128.1612619 -182 108 C-182.061875 106.70642578 -182.061875 106.70642578 -182.125 105.38671875 C-182.87518401 75.23869874 -174.17023639 47.35832857 -155 24 C-154.46890625 23.33355469 -153.9378125 22.66710937 -153.390625 21.98046875 C-135.96632008 0.94684352 -107.77853372 -11.66890614 -81 -15 C-79.72576172 -15.16435547 -79.72576172 -15.16435547 -78.42578125 -15.33203125 C-51.17088709 -18.31614375 -23.81839986 -13.8349028 0 0 Z M-105.3125 54.4375 C-119.55010184 71.4768789 -122.30643104 92.15157598 -120.72265625 113.7890625 C-118.79168399 131.55400725 -111.97046322 147.46675155 -98 159 C-90.46830892 164.36189642 -83.08591025 167.42146293 -74 169 C-73.19175781 169.15339844 -72.38351562 169.30679688 -71.55078125 169.46484375 C-55.42467981 171.83711322 -39.86589117 166.43767565 -27 157 C-14.2946148 147.02087154 -7.29077136 130.58646802 -5 115 C-3.45348085 93.19207621 -5.51833996 73.96631457 -19.25 56.125 C-30.37214805 43.32794302 -44.43423124 37.26776135 -61.109375 35.81640625 C-77.87403855 35.22756476 -94.01175537 42.16510256 -105.3125 54.4375 Z " fill="#FFFFFF" transform="translate(912,473)"/>
<path d="M0 0 C24.84363828 -0.57618261 52.19861865 5.22712134 70.86328125 22.55859375 C72.03890625 23.82703125 72.03890625 23.82703125 73.23828125 25.12109375 C73.82996094 25.65863281 74.42164063 26.19617188 75.03125 26.75 C85.07570041 36.05617359 93.03545563 49.28859906 94.23828125 63.12109375 C84.30318095 66.30591167 74.27646277 69.04966001 64.18701172 71.6953125 C61.58173346 72.37937721 58.97834805 73.07034897 56.375 73.76171875 C54.71234839 74.19963209 53.04959184 74.6371472 51.38671875 75.07421875 C50.22431168 75.38350311 50.22431168 75.38350311 49.03842163 75.69903564 C46.02372111 76.48478857 43.36791958 77.12109375 40.23828125 77.12109375 C39.94695312 76.34765625 39.655625 75.57421875 39.35546875 74.77734375 C35.24754097 64.33959013 30.71632482 56.08275556 20.23828125 51.12109375 C8.11599975 46.92727414 -7.00548322 46.3842797 -18.8125 51.95703125 C-23.77728274 54.92197164 -26.82227463 58.71106542 -28.76171875 64.12109375 C-29.6505032 69.93237668 -29.387257 75.33592154 -25.84375 80.1875 C-14.0420216 91.14782938 4.87670144 94.09621797 19.87695312 98.08984375 C49.08787942 105.87536913 49.08787942 105.87536913 62.23828125 112.12109375 C63.40101563 112.6625 64.56375 113.20390625 65.76171875 113.76171875 C80.31999382 121.0238886 91.79075572 132.63367945 97.23828125 148.12109375 C101.68008751 165.19434409 100.53176659 182.59646726 92.17578125 198.18359375 C80.11498818 217.65058811 61.43141596 228.73918278 39.625 234.58544922 C29.20156187 236.92475192 18.76530406 237.51081296 8.11328125 237.49609375 C7.44118622 237.49554993 6.76909119 237.4950061 6.07662964 237.4944458 C-22.40715162 237.38911728 -48.32030728 229.03825105 -69.09765625 208.8515625 C-77.38480996 200.09772608 -88.76171875 185.77373398 -88.76171875 173.12109375 C-83.46420737 171.8928137 -78.166341 170.66607981 -72.86816406 169.44067383 C-71.07217131 169.02506557 -69.27627012 168.60906141 -67.48046875 168.19262695 C-36.98182254 161.12109375 -36.98182254 161.12109375 -32.76171875 161.12109375 C-32.55417969 161.73855469 -32.34664062 162.35601563 -32.1328125 162.9921875 C-28.55713414 172.82156273 -23.66124884 179.83037081 -14.3671875 184.90625 C-1.52434683 190.89444108 12.47998983 191.54624403 26.0234375 187.234375 C32.30553905 184.58099989 37.23821845 181.31430214 40.51171875 175.11328125 C42.28910142 170.23981264 41.78078827 165.68833625 40.11328125 160.87109375 C29.68359082 145.57421445 5.93456989 143.17984657 -10.8125 139.19921875 C-25.17226917 135.77440157 -39.33438574 131.62717659 -52.69921875 125.24609375 C-53.40030762 124.91295166 -54.10139648 124.57980957 -54.82373047 124.23657227 C-60.81557945 121.28493957 -65.86066266 117.67075337 -70.76171875 113.12109375 C-71.40367187 112.569375 -72.045625 112.01765625 -72.70703125 111.44921875 C-80.37982858 104.47394845 -84.40346053 95.06310323 -86.76171875 85.12109375 C-86.94605469 84.36441406 -87.13039063 83.60773438 -87.3203125 82.828125 C-90.04152659 66.13961735 -86.63299111 49.44897077 -77.76171875 35.12109375 C-75.00455313 31.50262325 -72.02406312 28.28648033 -68.76171875 25.12109375 C-68.148125 24.49847656 -67.53453125 23.87585938 -66.90234375 23.234375 C-49.27545551 6.47376546 -23.49814038 1.03032864 0 0 Z " fill="#FFFFFF" transform="translate(600.76171875,456.87890625)"/>
<path d="M0 0 C19.8 0 39.6 0 60 0 C60.01458252 7.48123535 60.02916504 14.9624707 60.04418945 22.67041016 C60.09294322 46.60525161 60.15635127 70.54003119 60.22898628 94.47481105 C60.2402545 98.19235417 60.25139294 101.90989766 60.26245117 105.62744141 C60.26465486 106.36754001 60.26685854 107.10763861 60.269129 107.87016444 C60.30450511 119.85504016 60.32936747 131.83991582 60.35034702 143.82482441 C60.37210658 156.12169013 60.40515846 168.41848808 60.44870156 180.71529615 C60.47521564 188.30360109 60.49291279 195.89182156 60.49934604 203.48017053 C60.50522169 209.29810723 60.52680555 215.11591894 60.55427551 220.93379593 C60.56308176 223.32107205 60.566773 225.70837327 60.56500816 228.09566498 C60.5633608 231.35181144 60.58000957 234.60736813 60.60127258 237.86343384 C60.59642501 238.81091197 60.59157743 239.7583901 60.58658296 240.73457968 C60.64243414 245.90730111 61.09770677 249.53269518 64 254 C69.06969845 258.68947106 73.00693153 259.14359 79.6875 259.0625 C80.7403418 259.05573242 80.7403418 259.05573242 81.81445312 259.04882812 C83.54300538 259.03706927 85.27151365 259.01913454 87 259 C89.77978544 266.73429262 91.72995213 274.6320975 93.64428711 282.61328125 C94.19158275 284.8919989 94.74676558 287.1686972 95.30273438 289.4453125 C95.65411342 290.8983245 96.00504142 292.35144567 96.35546875 293.8046875 C96.52104782 294.48280487 96.68662689 295.16092224 96.85722351 295.85958862 C97.52368617 298.65598877 98 301.11240342 98 304 C82.58119251 312.94290834 61.39590534 313.62380959 44.3125 309.375 C29.48927124 304.98124296 16.39650892 296.95453691 8.23828125 283.4296875 C-0.58263284 266.12177404 -0.28678836 249.06570821 -0.22705078 230.1159668 C-0.22648596 227.601766 -0.22680461 225.08756487 -0.22793579 222.57336426 C-0.22838944 217.18240076 -0.22276168 211.79149961 -0.21146011 206.40054893 C-0.19513117 198.60637629 -0.18998959 190.81222698 -0.18748413 183.01803908 C-0.18311856 170.36919045 -0.16984052 157.72036777 -0.15087891 145.0715332 C-0.13249053 132.79223764 -0.11834854 120.51294915 -0.10986328 108.23364258 C-0.10933783 107.47537411 -0.10881239 106.71710564 -0.10827102 105.93585934 C-0.10566074 102.13143947 -0.10313337 98.32701954 -0.10064721 94.52259958 C-0.07995019 63.01504338 -0.0430997 31.5075355 0 0 Z " fill="#FFFFFF" transform="translate(1010,383)"/>
</svg>
